# xmcd
#
# Track frame offsets: 
#        150
#        11037
#        29855
#        50920
#        63213
#        82431
#        93028
#        118277
#        130525
#        145625
#
# Disc length: 2473 seconds
#
# Revision: 0
# Processed by: cddbd v1.5.2PL0 Copyright (c) Steve Scherf et al.
# Submitted via: ExactAudioCopy v0.99pb5
#
DISCID=8e09a70a
DTITLE=Stevie Ray Vaughan and Double Trouble - In Step
DYEAR=2011
DGENRE=Blues
TTITLE0=If The House Is Rockin'
TTITLE1=Crossfire
TTITLE2=Tightrope
TTITLE3=Let Me Love You Baby
TTITLE4=Leave My Girl Alone
TTITLE5=Travis Walk
TTITLE6=Wall of Denial
TTITLE7=Scratch-N-Sniff
TTITLE8=Love Me Darlin'
TTITLE9=Riviera Paradise
EXTD=
EXTT0=
EXTT1=
EXTT2=
EXTT3=
EXTT4=
EXTT5=
EXTT6=
EXTT7=
EXTT8=
EXTT9=
PLAYORDER=
